<svg width="21" height="22" viewBox="0 0 21 22" fill="none" xmlns="http://www.w3.org/2000/svg">
<path fill-rule="evenodd" clip-rule="evenodd" d="M14.3769 0.25461C13.9986 0.500054 12.6597 1.40433 11.4019 2.26378L9.11513 3.82669L6.8381 2.89078C4.15823 1.7892 2.40782 1.3203 2.16718 1.63964C2.07224 1.76563 2.46605 3.44301 3.04255 5.36682L4.0906 8.86486L1.94863 11.7074C0.155889 14.0864 -0.152419 14.6147 0.0571993 14.9502C0.218239 15.2077 1.37342 15.3323 3.29757 15.2992C4.9419 15.2709 6.41562 15.1977 6.57234 15.1368C7.09231 14.9343 7.7134 15.6564 9.20489 18.1981C10.7122 20.7668 11.2707 21.4178 11.7927 21.2144C11.9551 21.1512 12.5987 19.5359 13.2234 17.6247L14.3588 14.15L17.4826 13.3652C21.8949 12.2563 21.9082 12.1828 18.2252 9.28437L15.293 6.97653L15.4336 6.00497C15.7512 3.80483 15.7398 0.316773 15.414 0.0712432C15.222 -0.0734439 14.7552 0.00916628 14.3769 0.25461ZM13.5871 2.58314C13.3955 2.7121 12.4896 3.35845 11.574 4.01934C10.6585 4.68024 9.70734 5.25289 9.45988 5.29167C9.21265 5.33062 7.92872 4.96484 6.60646 4.47859C5.28442 3.99251 4.17568 3.63031 4.14263 3.67418C4.10957 3.71804 4.46275 4.92553 4.9275 6.35744L5.77242 8.96103L4.00548 11.3058C3.03382 12.5953 2.29913 13.6959 2.37321 13.7518C2.44706 13.8074 3.71403 13.8148 5.18848 13.7681C6.66292 13.7213 7.94847 13.7427 8.04492 13.8154C8.35329 14.0478 10.0264 16.6148 10.4659 17.5295C10.6993 18.0155 11.0101 18.3662 11.1567 18.3089C11.3031 18.252 11.7928 17.0891 12.2445 15.725L13.0659 13.2452L14.8137 12.6164C15.7752 12.2708 16.9379 11.9169 17.398 11.8303C17.8577 11.7434 18.2218 11.5848 18.2068 11.4781C18.1918 11.3713 17.2633 10.525 16.1434 9.59756L14.107 7.91113L14.0911 5.6042C14.07 2.54708 14.0266 2.28768 13.5871 2.58314Z" fill="#72B4C4"/>
</svg>
