<svg width="21" height="22" viewBox="0 0 21 22" fill="none" xmlns="http://www.w3.org/2000/svg">
<path fill-rule="evenodd" clip-rule="evenodd" d="M20.228 10.4682C19.8452 10.2299 18.4581 9.40136 17.146 8.62731L14.7602 7.22013L14.6411 4.76114C14.5011 1.86708 14.1826 0.083156 13.7914 0.000816664C13.637 -0.031669 12.2854 1.03688 10.7881 2.37546L8.06572 4.80919L4.59741 8.31483C3.30251 8.91499 2.27103 9.46677 2.3055 9.54116C2.33987 9.61532 3.32443 10.1492 4.4933 10.7273C5.66217 11.3054 6.65538 11.858 6.70027 11.9548C6.8438 12.2645 7.07808 14.963 7.03943 15.8592C7.01877 16.3353 7.11487 16.7382 7.25302 16.7547C7.39094 16.7713 8.25734 16.0689 9.17806 15.1939L10.852 13.6032L12.4765 13.8415C13.3701 13.9728 14.424 14.1816 14.8187 14.3058C15.2133 14.4298 15.5633 14.4579 15.5961 14.3684C15.6288 14.279 15.2578 13.2322 14.7714 12.0424L13.8869 9.879L14.836 8.07405C16.0939 5.68213 16.1681 5.46181 15.7024 5.50895Z" fill="#72B4C4"/>
<path d="M20.228 10.4682C19.8452 10.2299 18.4581 9.40136 17.146 8.62731L14.7602 7.22013L14.6411 4.76114C14.5011 1.86708 14.1826 0.083156 13.7914 0.000816664C13.637 -0.031669 12.2854 1.03688 10.7881 2.37546L8.06572 4.80919L4.58281 4.07627C1.66777 3.46285 1.05852 3.40795 0.843727 3.74015C0.678943 3.99525 1.05648 5.09409 1.9032 6.82224C2.62669 8.29912 3.31856 9.6024 3.44017 9.71847C3.84426 10.1033 3.45411 10.9722 1.78579 13.4015C0.0997243 15.8566 -0.252679 16.6386 0.153095 17.0249C0.27928 17.1451 2.01499 17.0422 4.01065 16.7967L7.63875 16.3498L9.67528 18.8452C12.5522 22.3695 12.6243 22.3504 13.6855 17.7854L14.5305 14.1509L15.4698 13.8657C17.5968 13.2195 20.7502 11.7286 20.8342 11.3294C20.8837 11.0941 20.6108 10.7065 20.228 10.4682ZM17.7844 10.7414C17.5863 10.6227 16.6165 10.0767 15.6295 9.5283C14.6425 8.97985 13.7202 8.36171 13.5801 8.15411C13.4399 7.94678 13.2261 6.629 13.1051 5.22537C12.9841 3.82201 12.8414 2.66436 12.7877 2.65305C12.7339 2.64174 11.7905 3.47406 10.6913 4.50266L8.6925 6.3728L5.81941 5.76821C4.23946 5.43574 2.93102 5.23771 2.91192 5.32847C2.89288 5.41896 3.42394 6.56928 4.09212 7.88447C4.7603 9.19966 5.28657 10.3727 5.2617 10.4909C5.18219 10.8688 3.56805 13.4733 2.92643 14.2595C2.58543 14.6771 2.39982 15.1073 2.51387 15.2158C2.62764 15.3242 3.88839 15.274 5.31521 15.104L7.9092 14.7951L9.22041 16.1108C9.94144 16.8346 10.7554 17.7372 11.0292 18.117C11.3029 18.4964 11.6011 18.7588 11.6914 18.6999C11.7816 18.641 12.1538 17.4411 12.5182 16.0333L13.1808 13.4737L15.2629 12.4801C18.022 11.1634 18.2384 11.0139 17.7844 10.7414Z" fill="#72B4C4"/>
</svg>